<svg width="25" height="25" viewBox="0 0 25 25" fill="none" xmlns="http://www.w3.org/2000/svg">
<path d="M8 22.5C7.03333 22.5 6.20833 22.1583 5.525 21.475C4.84167 20.7917 4.5 19.9667 4.5 19V6C4.5 5.03333 4.84167 4.20833 5.525 3.525C6.20833 2.84167 7.03333 2.5 8 2.5H20.5V17.5C20.0833 17.5 19.7292 17.6458 19.4375 17.9375C19.1458 18.2292 19 18.5833 19 19C19 19.4167 19.1458 19.7708 19.4375 20.0625C19.7292 20.3542 20.0833 20.5 20.5 20.5V22.5H8ZM6.5 15.825C6.73333 15.7083 6.975 15.625 7.225 15.575C7.475 15.525 7.73333 15.5 8 15.5H8.5V4.5H8C7.58333 4.5 7.22917 4.64583 6.9375 4.9375C6.64583 5.22917 6.5 5.58333 6.5 6V15.825ZM10.5 15.5H18.5V4.5H10.5V15.5ZM8 20.5H17.325C17.225 20.2667 17.1458 20.0292 17.0875 19.7875C17.0292 19.5458 17 19.2833 17 19C17 18.7333 17.025 18.475 17.075 18.225C17.125 17.975 17.2083 17.7333 17.325 17.5H8C7.56667 17.5 7.20833 17.6458 6.925 17.9375C6.64167 18.2292 6.5 18.5833 6.5 19C6.5 19.4333 6.64167 19.7917 6.925 20.075C7.20833 20.3583 7.56667 20.5 8 20.5Z" fill="#B1B1B1"/>
</svg>
