<svg width="25" height="25" viewBox="0 0 25 25" fill="none" xmlns="http://www.w3.org/2000/svg">
<path d="M8.775 8.2251L5.775 5.2251L7.2 3.8001L10.2 6.8001L8.775 8.2251ZM12.5 5.8501V1.6001H14.5V5.8501H12.5ZM19.775 19.2251L16.775 16.2251L18.2 14.8001L21.2 17.8001L19.775 19.2251ZM18.2 8.2251L16.775 6.8001L19.775 3.8001L21.2 5.2251L18.2 8.2251ZM19.15 12.5001V10.5001H23.4V12.5001H19.15ZM5.625 22.2001L2.8 19.3751C2.6 19.1751 2.5 18.9418 2.5 18.6751C2.5 18.4084 2.6 18.1751 2.8 17.9751L11.875 8.8751C12.4583 8.29176 13.1667 8.0001 14 8.0001C14.8333 8.0001 15.5417 8.29176 16.125 8.8751C16.7083 9.45843 17 10.1668 17 11.0001C17 11.8334 16.7083 12.5418 16.125 13.1251L7.025 22.2001C6.825 22.4001 6.59167 22.5001 6.325 22.5001C6.05833 22.5001 5.825 22.4001 5.625 22.2001ZM12.6 13.8251L14.7 11.7001C14.9 11.5001 15 11.2668 15 11.0001C15 10.7334 14.9 10.5001 14.7 10.3001C14.5 10.1001 14.2667 10.0001 14 10.0001C13.7333 10.0001 13.5 10.1001 13.3 10.3001L11.175 12.4251L12.6 13.8251Z" fill="#B1B1B1"/>
</svg>
